<svg width="1075" height="488" viewBox="0 0 1075 488" fill="none" xmlns="http://www.w3.org/2000/svg">
    <g id="Floor">
        <g id="Corridor">
            <line id="Line 61" x1="176" y1="351" x2="645" y2="351" stroke="#201541" stroke-width="2" />
            <line id="Line 62" x1="176" y1="257" x2="645" y2="257" stroke="#201541" stroke-width="2" />
        </g>
        <g id="Stairs">
            <g id="Group 2087326991">
                <line id="Line 63" x1="117.5" y1="352" x2="117.5" y2="426" stroke="#201541"
                    stroke-width="3" />
                <g id="Frame 294">
                    <line id="Line 71" x1="177" y1="363.5" x2="119" y2="363.5" stroke="#201541"
                        stroke-width="3" />
                    <line id="Line 72" x1="177" y1="380.5" x2="119" y2="380.5" stroke="#201541"
                        stroke-width="3" />
                    <line id="Line 73" x1="177" y1="397.5" x2="119" y2="397.5" stroke="#201541"
                        stroke-width="3" />
                    <line id="Line 74" x1="177" y1="414.5" x2="119" y2="414.5" stroke="#201541"
                        stroke-width="3" />
                </g>
                <line id="Line 67" x1="177.5" y1="352" x2="177.5" y2="426" stroke="#201541"
                    stroke-width="3" />
            </g>
            <g id="Group 2087326992">
                <line id="Line 63_2" x1="43.5" y1="352" x2="43.5" y2="426" stroke="#201541"
                    stroke-width="3" />
                <g id="Frame 294_2">
                    <line id="Line 71_2" x1="103" y1="363.5" x2="45" y2="363.5" stroke="#201541"
                        stroke-width="3" />
                    <line id="Line 72_2" x1="103" y1="380.5" x2="45" y2="380.5" stroke="#201541"
                        stroke-width="3" />
                    <line id="Line 73_2" x1="103" y1="397.5" x2="45" y2="397.5" stroke="#201541"
                        stroke-width="3" />
                    <line id="Line 74_2" x1="103" y1="414.5" x2="45" y2="414.5" stroke="#201541"
                        stroke-width="3" />
                </g>
                <line id="Line 67_2" x1="103.5" y1="352" x2="103.5" y2="426" stroke="#201541"
                    stroke-width="3" />
            </g>
        </g>
        <g id="462">
            <g id="Frame">
                <rect x="411" y="375" width="147" height="76" rx="4" stroke="#201541"
                    stroke-width="2" />
                <path id="462_2"
                    d="M439.04 439V433.36H423.68V430.76L437.52 410.72H442.52V430.2H445.84V433.36H442.52V439H439.04ZM427.88 430.2H439.04V413.88L427.88 430.2ZM460.433 439.32C458.513 439.32 456.859 438.96 455.473 438.24C454.113 437.493 452.993 436.493 452.113 435.24C451.259 433.96 450.633 432.52 450.233 430.92C449.833 429.293 449.633 427.587 449.633 425.8C449.633 423.693 449.833 421.72 450.233 419.88C450.659 418.013 451.313 416.373 452.193 414.96C453.099 413.547 454.273 412.44 455.713 411.64C457.153 410.813 458.886 410.4 460.913 410.4C462.273 410.4 463.539 410.64 464.713 411.12C465.913 411.573 466.953 412.267 467.833 413.2C468.713 414.107 469.366 415.227 469.793 416.56H466.153C465.673 415.573 464.939 414.827 463.953 414.32C462.966 413.813 461.939 413.56 460.873 413.56C459.646 413.56 458.593 413.8 457.713 414.28C456.833 414.733 456.086 415.347 455.473 416.12C454.886 416.893 454.406 417.773 454.033 418.76C453.686 419.747 453.433 420.773 453.273 421.84C453.113 422.907 453.033 423.947 453.033 424.96C453.646 424.027 454.353 423.267 455.153 422.68C455.979 422.093 456.873 421.667 457.833 421.4C458.819 421.107 459.819 420.96 460.833 420.96C462.699 420.96 464.313 421.347 465.673 422.12C467.059 422.867 468.139 423.92 468.913 425.28C469.686 426.613 470.073 428.16 470.073 429.92C470.073 431.787 469.659 433.427 468.833 434.84C468.006 436.253 466.859 437.36 465.393 438.16C463.953 438.933 462.299 439.32 460.433 439.32ZM460.353 436.16C461.553 436.16 462.606 435.907 463.513 435.4C464.446 434.867 465.179 434.16 465.713 433.28C466.246 432.373 466.513 431.373 466.513 430.28C466.513 429.107 466.259 428.067 465.753 427.16C465.246 426.253 464.539 425.533 463.633 425C462.753 424.467 461.713 424.2 460.513 424.2C459.419 424.2 458.379 424.453 457.393 424.96C456.406 425.44 455.606 426.133 454.993 427.04C454.406 427.92 454.113 428.973 454.113 430.2C454.113 431.32 454.379 432.333 454.913 433.24C455.473 434.12 456.219 434.827 457.153 435.36C458.113 435.893 459.179 436.16 460.353 436.16ZM473.434 439V436.08L481.434 429.16C482.154 428.547 482.941 427.88 483.794 427.16C484.674 426.413 485.501 425.613 486.274 424.76C487.074 423.907 487.728 423 488.234 422.04C488.768 421.053 489.034 420.013 489.034 418.92C489.034 417.213 488.528 415.907 487.514 415C486.501 414.067 485.141 413.6 483.434 413.6C482.074 413.6 480.888 413.88 479.874 414.44C478.861 415 478.194 415.813 477.874 416.88H474.154C474.421 415.413 475.021 414.213 475.954 413.28C476.914 412.32 478.061 411.6 479.394 411.12C480.754 410.64 482.154 410.4 483.594 410.4C485.354 410.4 486.901 410.72 488.234 411.36C489.594 412 490.648 412.933 491.394 414.16C492.168 415.36 492.554 416.84 492.554 418.6C492.554 420.333 492.221 421.853 491.554 423.16C490.914 424.467 490.061 425.653 488.994 426.72C487.954 427.76 486.834 428.787 485.634 429.8L478.474 435.84H492.874V439H473.434Z"
                    fill="#201541" />
            </g>
        </g>
    </g>
</svg>