<svg width="46" height="46" viewBox="0 0 46 46" fill="current" xmlns="http://www.w3.org/2000/svg">
<path d="M30.2244 36.7522C30.2511 36.8392 30.2564 36.931 30.2399 37.0204C30.2233 37.1097 30.1853 37.1941 30.129 37.2668C30.0726 37.3394 29.9995 37.3984 29.9153 37.4389C29.8312 37.4794 29.7384 37.5003 29.6444 37.5C29.5139 37.5002 29.3869 37.4595 29.2825 37.3839C29.1781 37.3084 29.102 37.2021 29.0656 37.0812C28.3031 34.5798 25.8091 32.8333 22.9985 32.8333C20.1879 32.8333 17.6938 34.5798 16.9314 37.0812C16.8819 37.2244 16.7768 37.3435 16.6383 37.4135C16.4997 37.4835 16.3384 37.4989 16.1884 37.4564C16.0383 37.414 15.9111 37.317 15.8336 37.1859C15.756 37.0547 15.7342 36.8997 15.7726 36.7533C16.6837 33.7585 19.655 31.6678 22.9973 31.6678C26.3396 31.6678 29.3121 33.7585 30.222 36.7533L30.2244 36.7522ZM37.4744 26.2522C36.5634 23.2573 33.592 21.1667 30.2498 21.1667C30.0895 21.1667 29.9358 21.2281 29.8225 21.3375C29.7092 21.4469 29.6456 21.5953 29.6456 21.75C29.6456 21.9047 29.7092 22.0531 29.8225 22.1625C29.9358 22.2719 30.0895 22.3333 30.2498 22.3333C33.0592 22.3333 35.5544 24.0798 36.3169 26.5812C36.3389 26.6548 36.3758 26.7234 36.4255 26.7831C36.4752 26.8428 36.5366 26.8925 36.6063 26.9291C36.676 26.9658 36.7524 26.9888 36.8314 26.9967C36.9103 27.0047 36.99 26.9975 37.066 26.9755C37.1422 26.9541 37.2132 26.9183 37.275 26.8704C37.3368 26.8224 37.3882 26.7631 37.4263 26.6959C37.4643 26.6287 37.4883 26.5549 37.4968 26.4788C37.5052 26.4026 37.4969 26.3256 37.4744 26.2522ZM16.3538 21.75C16.3538 21.5953 16.2901 21.4469 16.1768 21.3375C16.0635 21.2281 15.9099 21.1667 15.7496 21.1667C12.4061 21.1667 9.43481 23.2573 8.52493 26.2522C8.49818 26.3392 8.49287 26.431 8.50943 26.5204C8.52599 26.6098 8.56397 26.6941 8.62032 26.7668C8.67668 26.8394 8.74985 26.8984 8.83399 26.9389C8.91813 26.9794 9.01092 27.0003 9.10494 27C9.2354 27.0002 9.36239 26.9595 9.46678 26.8839C9.57118 26.8084 9.64732 26.7021 9.68373 26.5812C10.4462 24.0798 12.9402 22.3333 15.7508 22.3333C15.9111 22.3333 16.0647 22.2719 16.178 22.1625C16.2913 22.0531 16.3538 21.9047 16.3538 21.75ZM22.9997 20C25.6653 20 27.8331 22.093 27.8331 24.6667C27.8331 27.2403 25.6653 29.3333 22.9997 29.3333C20.3341 29.3333 18.1663 27.2403 18.1663 24.6667C18.1663 22.093 20.3341 20 22.9997 20ZM19.3747 24.6667C19.3747 26.5963 21.0011 28.1667 22.9997 28.1667C24.9983 28.1667 26.6247 26.5963 26.6247 24.6667C26.6247 22.737 24.9983 21.1667 22.9997 21.1667C21.0011 21.1667 19.3747 22.737 19.3747 24.6667ZM25.4164 14.1667C25.4164 11.593 27.5841 9.5 30.2498 9.5C32.9154 9.5 35.0831 11.593 35.0831 14.1667C35.0831 16.7403 32.9154 18.8333 30.2498 18.8333C27.5841 18.8333 25.4164 16.7403 25.4164 14.1667ZM26.6247 14.1667C26.6247 16.0963 28.2512 17.6667 30.2498 17.6667C32.2484 17.6667 33.8748 16.0963 33.8748 14.1667C33.8748 12.237 32.2484 10.6667 30.2498 10.6667C28.2512 10.6667 26.6247 12.237 26.6247 14.1667ZM10.9162 14.1667C10.9162 11.593 13.084 9.5 15.7496 9.5C18.4152 9.5 20.583 11.593 20.583 14.1667C20.583 16.7403 18.4152 18.8333 15.7496 18.8333C13.084 18.8333 10.9162 16.7403 10.9162 14.1667ZM12.1246 14.1667C12.1246 16.0963 13.751 17.6667 15.7496 17.6667C17.7482 17.6667 19.3747 16.0963 19.3747 14.1667C19.3747 12.237 17.7482 10.6667 15.7496 10.6667C13.751 10.6667 12.1246 12.237 12.1246 14.1667Z"/>
</svg>
