<svg width="30" height="30" viewBox="0 0 30 30" fill="current" xmlns="http://www.w3.org/2000/svg">
<g clip-path="url(#clip0_3311_2277)">
<path d="M23.75 2.5H22.5V1.25C22.5 0.5625 21.9375 0 21.25 0C20.5625 0 20 0.5625 20 1.25V2.5H10V1.25C10 0.5625 9.4375 0 8.75 0C8.0625 0 7.5 0.5625 7.5 1.25V2.5H6.25C2.8 2.5 0 5.3 0 8.75V23.75C0 27.2 2.8 30 6.25 30H23.75C27.2 30 30 27.2 30 23.75V8.75C30 5.3 27.2 2.5 23.75 2.5ZM13.75 11.25V15H10V11.25H13.75ZM20 11.25V15H16.25V11.25H20ZM27.5 11.25V15H22.5V11.25H27.5ZM7.5 15H2.5V11.25H7.5V15ZM2.5 17.5H7.5V21.25H2.5V17.5ZM10 17.5H13.75V21.25H10V17.5ZM13.75 23.75V27.5H10V23.75H13.75ZM16.25 23.75H20V27.5H16.25V23.75ZM16.25 21.25V17.5H20V21.25H16.25ZM22.5 17.5H27.5V21.25H22.5V17.5ZM6.25 5H23.75C25.8125 5 27.5 6.6875 27.5 8.75H2.5C2.5 6.6875 4.1875 5 6.25 5ZM2.5 23.75H7.5V27.5H6.25C4.1875 27.5 2.5 25.8125 2.5 23.75ZM23.75 27.5H22.5V23.75H27.5C27.5 25.8125 25.8125 27.5 23.75 27.5Z"/>
</g>
<defs>
<clipPath id="clip0_3311_2277">
<rect width="30" height="30"/>
</clipPath>
</defs>
</svg>
