<svg width="30" height="30" viewBox="0 0 30 30" fill="current" xmlns="http://www.w3.org/2000/svg">
    <path
        d="M24.375 2.5H22.5V0.625C22.5 0.275 22.225 0 21.875 0C21.525 0 21.25 0.275 21.25 0.625V2.5H8.75V0.625C8.75 0.275 8.475 0 8.125 0C7.775 0 7.5 0.275 7.5 0.625V2.5H5.625C2.525 2.5 0 5.025 0 8.125V24.375C0 27.475 2.525 30 5.625 30H24.375C27.475 30 30 27.475 30 24.375V8.125C30 5.025 27.475 2.5 24.375 2.5ZM14.375 11.25V16.25H8.75V11.25H14.375ZM21.25 11.25V16.25H15.625V11.25H21.25ZM28.75 11.25V16.25H22.5V11.25H28.75ZM7.5 16.25H1.25V11.25H7.5V16.25ZM1.25 17.5H7.5V22.5H1.25V17.5ZM8.75 17.5H14.375V22.5H8.75V17.5ZM14.375 23.75V28.75H8.75V23.75H14.375ZM15.625 23.75H21.25V28.75H15.625V23.75ZM15.625 22.5V17.5H21.25V22.5H15.625ZM22.5 17.5H28.75V22.5H22.5V17.5ZM5.625 3.75H24.375C26.7875 3.75 28.75 5.7125 28.75 8.125V10H1.25V8.125C1.25 5.7125 3.2125 3.75 5.625 3.75ZM1.25 24.375V23.75H7.5V28.75H5.625C3.2125 28.75 1.25 26.7875 1.25 24.375ZM24.375 28.75H22.5V23.75H28.75V24.375C28.75 26.7875 26.7875 28.75 24.375 28.75Z"
        />
</svg>
    