<svg width="46" height="46" viewBox="0 0 46 46" fill="current" xmlns="http://www.w3.org/2000/svg">
<path d="M21.33 34.9703V36.4848L13.6724 28.9979C9.44325 24.7697 9.44325 17.897 13.6681 13.6731C15.715 11.6267 18.4358 10.5 21.33 10.5C24.2242 10.5 26.9451 11.6267 28.9919 13.6731C31.0388 15.7195 32.1657 18.4398 32.1657 21.3333C32.1657 22.4524 31.9934 23.5444 31.6673 24.5833H30.5176C30.8817 23.552 31.0821 22.46 31.0821 21.3333C31.0821 18.729 30.0679 16.2807 28.2259 14.439C26.3838 12.5984 23.9349 11.5833 21.33 11.5833C18.7251 11.5833 16.2762 12.5984 14.4342 14.439C10.6308 18.2415 10.6308 24.4263 14.4342 28.2277L21.33 34.9703ZM21.33 25.6667C18.9397 25.6667 16.9957 23.7232 16.9957 21.3333C16.9957 18.9435 18.9397 17 21.33 17C23.7204 17 25.6643 18.9435 25.6643 21.3333C25.6643 23.7232 23.7204 25.6667 21.33 25.6667ZM24.5807 21.3333C24.5807 19.5415 23.1222 18.0833 21.33 18.0833C19.5378 18.0833 18.0793 19.5415 18.0793 21.3333C18.0793 23.1252 19.5378 24.5833 21.33 24.5833C23.1222 24.5833 24.5807 23.1252 24.5807 21.3333ZM36.5 28.9167V36.5H23.4972V28.9167C23.4972 27.7218 24.4691 26.75 25.6643 26.75H34.3329C35.528 26.75 36.5 27.7218 36.5 28.9167ZM25.6643 27.8333C25.4714 27.8333 25.3002 27.8973 25.1431 27.9861L28.8489 31.6911C29.4622 32.3043 30.5339 32.3043 31.1472 31.6911L34.853 27.9861C34.6959 27.8973 34.5247 27.8333 34.3318 27.8333H25.6632H25.6643ZM35.4164 35.4167V28.9546L31.9143 32.4559C31.4029 32.9683 30.7224 33.2489 29.9986 33.2489C29.2748 33.2489 28.5943 32.9673 28.0828 32.4559L24.5807 28.9546V35.4167H35.4164Z"/>
</svg>
