<svg width="45" height="45" viewBox="0 0 45 45" fill="none" xmlns="http://www.w3.org/2000/svg">
<path d="M27.38 27.8505C27.4985 27.9702 27.5661 28.1337 27.568 28.305C27.5699 28.4762 27.5058 28.6412 27.39 28.7637L24.2462 32.0831C23.77 32.5752 23.1462 32.8245 22.5237 32.831C21.8644 32.8274 21.2318 32.5614 20.7575 32.0883L17.6087 28.7637C17.4954 28.6407 17.4335 28.4766 17.4365 28.3068C17.4394 28.137 17.507 27.9753 17.6245 27.8566C17.742 27.7379 17.9 27.6717 18.0643 27.6726C18.2287 27.6734 18.3861 27.741 18.5025 27.8608L21.6462 31.1803C21.715 31.2512 21.7918 31.3132 21.875 31.365V21.8548C21.875 21.6836 21.9408 21.5193 22.058 21.3982C22.1753 21.2771 22.3342 21.209 22.5 21.209C22.6657 21.209 22.8247 21.2771 22.9419 21.3982C23.0591 21.5193 23.125 21.6836 23.125 21.8548V31.365C23.21 31.3121 23.2885 31.2488 23.3587 31.1764L26.4975 27.8621C26.6135 27.74 26.7717 27.6703 26.9373 27.6684C27.1029 27.6665 27.2625 27.7324 27.3812 27.8518L27.38 27.8505ZM35 19.898V32.1877C35 35.3922 32.4762 38 29.375 38H15.625C14.1337 37.9983 12.7039 37.3854 11.6493 36.2957C10.5948 35.2061 10.0017 33.7287 10 32.1877V12.8123C10 9.60777 12.5237 7 15.625 7H22.5187C24.6875 7 26.7287 7.87313 28.265 9.45923L32.62 13.9605C33.3771 14.738 33.9773 15.6631 34.3858 16.6821C34.7944 17.7011 35.0031 18.7938 35 19.8968V19.898ZM25 15.3968C25 16.4649 25.8412 17.3342 26.875 17.3342H33.29C32.9434 16.4113 32.4137 15.5736 31.735 14.875L27.38 10.3737C26.7034 9.67325 25.8928 9.12644 25 8.76822V15.3968ZM33.75 19.898C33.75 19.4666 33.7125 19.0417 33.64 18.6258H26.875C26.0465 18.6248 25.2522 18.2843 24.6664 17.6789C24.0805 17.0736 23.751 16.2529 23.75 15.3968V8.40527C23.3437 8.32961 22.9316 8.29157 22.5187 8.29161H15.625C13.2125 8.29161 11.25 10.3194 11.25 12.8123V32.1865C11.25 34.6793 13.2125 36.7071 15.625 36.7071H29.375C31.7875 36.7071 33.75 34.6793 33.75 32.1865V19.8968V19.898ZM22.5237 32.831C22.515 32.831 22.5312 32.831 22.5237 32.831V32.831Z" fill="#201541"/>
</svg>
