<svg width="24" height="23" viewBox="0 0 24 23" fill="none" xmlns="http://www.w3.org/2000/svg">
<rect x="0.5" y="0.5" width="23" height="21.8333" rx="4.5" stroke="white"/>
<path d="M16.0833 5H7.91667C7.1434 5.00093 6.40208 5.30851 5.85529 5.85529C5.30851 6.40208 5.00093 7.1434 5 7.91667V14.9167C5.00093 15.6899 5.30851 16.4313 5.85529 16.978C6.40208 17.5248 7.1434 17.8324 7.91667 17.8333H16.0833C16.8566 17.8324 17.5979 17.5248 18.1447 16.978C18.6915 16.4313 18.9991 15.6899 19 14.9167V7.91667C18.9991 7.1434 18.6915 6.40208 18.1447 5.85529C17.5979 5.30851 16.8566 5.00093 16.0833 5ZM7.91667 6.16667H16.0833C16.4326 6.16735 16.7737 6.27255 17.0627 6.46872C17.3517 6.66489 17.5754 6.94305 17.705 7.26742L13.2378 11.7352C12.9091 12.0626 12.464 12.2464 12 12.2464C11.536 12.2464 11.0909 12.0626 10.7622 11.7352L6.295 7.26742C6.42459 6.94305 6.64827 6.66489 6.93728 6.46872C7.22628 6.27255 7.56738 6.16735 7.91667 6.16667ZM16.0833 16.6667H7.91667C7.45254 16.6667 7.00742 16.4823 6.67923 16.1541C6.35104 15.8259 6.16667 15.3808 6.16667 14.9167V8.79167L9.93733 12.56C10.4849 13.1061 11.2266 13.4129 12 13.4129C12.7733 13.4129 13.5151 13.1061 14.0627 12.56L17.8333 8.79167V14.9167C17.8333 15.3808 17.649 15.8259 17.3208 16.1541C16.9926 16.4823 16.5475 16.6667 16.0833 16.6667Z" fill="white" stroke="white" stroke-width="0.5"/>
</svg>
