<svg width="34" height="34" viewBox="0 0 34 34" fill="current" xmlns="http://www.w3.org/2000/svg">
<g clip-path="url(#clip0_3311_2285)">
<path d="M31.2472 7.40905L20.8007 2.4323C18.5012 1.05876 15.6391 1.03438 13.3164 2.36855L2.75239 7.40905C2.71274 7.42891 2.67164 7.45016 2.63339 7.4728C0.126418 8.90625 -0.743903 12.1006 0.689543 14.6076C1.17544 15.4574 1.89018 16.1538 2.75239 16.6174L5.66649 18.0058V24.9474C5.66822 28.0514 7.68797 30.7937 10.6517 31.7163C12.7143 32.3129 14.8529 32.605 16.9999 32.5833C19.1465 32.6073 21.2851 32.3176 23.348 31.7234C26.3117 30.8009 28.3315 28.0585 28.3332 24.9545V18.0029L31.1666 16.6486V28.3332C31.1666 29.1156 31.8008 29.7498 32.5832 29.7498C33.3656 29.7498 33.9999 29.1156 33.9999 28.3332V11.3332C34.0093 9.66965 32.6958 8.13288 31.2472 7.40905ZM25.4998 24.9545C25.5005 26.8112 24.2959 28.4535 22.5248 29.0104C20.7287 29.5236 18.8676 29.7727 16.9998 29.7499C15.132 29.7727 13.2708 29.5236 11.4748 29.0104C9.70366 28.4534 8.49905 26.8112 8.49978 24.9545V19.3559L13.1989 21.5942C14.3583 22.2827 15.6825 22.6445 17.031 22.6411C18.3145 22.6502 19.5764 22.3104 20.6817 21.658L25.4998 19.3558V24.9545ZM30.0331 14.0603L19.3486 19.1603C18.6175 19.586 17.7845 19.8049 16.9386 19.7937C16.0926 19.7825 15.2657 19.5415 14.5461 19.0966L4.09253 14.1241C2.9273 13.4957 2.49207 12.0418 3.12041 10.8766C3.33293 10.4825 3.65153 10.1559 4.04014 9.93355L14.658 4.86191C15.3894 4.4371 16.2224 4.21868 17.0681 4.2299C17.9138 4.24113 18.7407 4.48159 19.4605 4.92566L29.907 9.90241C30.2844 10.112 30.5997 10.4176 30.8209 10.7883C31.0421 11.159 31.1613 11.5816 31.1664 12.0133C31.1671 12.4227 31.0634 12.8255 30.8651 13.1837C30.6668 13.5418 30.3805 13.8436 30.0331 14.0603Z"/>
</g>
<defs>
<clipPath id="clip0_3311_2285">
<rect width="34" height="34"/>
</clipPath>
</defs>
</svg>
