<svg width="29" height="29" viewBox="0 0 29 29" fill="current" xmlns="http://www.w3.org/2000/svg">
<path d="M29.0013 6.66216C29.0044 6.18011 28.8607 5.70854 28.5891 5.31026C28.3175 4.91198 27.9311 4.60589 27.4812 4.43278L17.5934 0.573352C15.6466 -0.188188 13.4849 -0.191206 11.536 0.564894L1.52854 4.4364C0.600543 4.79528 0 5.67011 0.00120834 6.66578C0.00241667 7.66145 0.601751 8.53508 1.52975 8.89274L6.04047 10.6327V17.5215C6.04047 17.6817 6.10412 17.8354 6.21743 17.9487C6.33073 18.062 6.4844 18.1256 6.64464 18.1256C6.80487 18.1256 6.95855 18.062 7.07185 17.9487C7.18515 17.8354 7.24881 17.6817 7.24881 17.5215V11.0992L11.4804 12.7316C13.4173 13.4798 15.5634 13.4798 17.5003 12.7316L21.7488 11.0931V17.5215C21.7488 17.6817 21.8125 17.8354 21.9258 17.9487C22.0391 18.062 22.1928 18.1256 22.353 18.1256C22.5132 18.1256 22.6669 18.062 22.7802 17.9487C22.8935 17.8354 22.9572 17.6817 22.9572 17.5215V10.6267L27.4727 8.88549C27.5899 8.84079 27.6842 8.76466 27.7905 8.70424V16.3131C27.7905 16.4734 27.8542 16.627 27.9675 16.7403C28.0808 16.8537 28.2344 16.9173 28.3947 16.9173C28.5549 16.9173 28.7086 16.8537 28.8219 16.7403C28.9352 16.627 28.9989 16.4734 28.9989 16.3131V6.67787L29.0013 6.66216ZM27.0377 7.75812L17.0653 11.6055C15.4088 12.2459 13.5731 12.2459 11.9166 11.6055L1.96475 7.76537C1.40892 7.55028 1.20954 7.05607 1.20954 6.66457C1.20954 6.27307 1.40771 5.77886 1.96475 5.56378L11.9722 1.69106C13.64 1.04388 15.49 1.04647 17.156 1.69831L27.0438 5.55774C27.2643 5.64109 27.4542 5.78973 27.5881 5.98383C27.7219 6.17793 27.7934 6.40825 27.7929 6.64403V6.67787C27.7924 6.91317 27.72 7.14269 27.5855 7.33574C27.451 7.52879 27.2607 7.67616 27.0401 7.75812H27.0377ZM27.9403 19.9502C27.5966 19.6788 27.1954 19.4895 26.7673 19.397C26.3392 19.3044 25.8957 19.311 25.4705 19.4161C22.84 20.0529 17.9172 21.1211 14.5 21.1211C11.0829 21.1211 6.1601 20.0529 3.52834 19.4161C3.10323 19.3103 2.65951 19.3034 2.23133 19.396C1.80314 19.4886 1.40191 19.6782 1.0585 19.9502C0.729055 20.2061 0.462429 20.5339 0.27898 20.9085C0.0955315 21.2832 0.00010984 21.6948 0 22.1119V26.2215C0 27.0661 0.385459 27.854 1.0585 28.3832C1.40252 28.6541 1.80376 28.843 2.23173 28.9355C2.6597 29.0281 3.10314 29.0218 3.52834 28.9173C6.15889 28.2805 11.0816 27.2123 14.4988 27.2123C17.916 27.2123 22.8388 28.2805 25.4705 28.9173C25.8956 29.0227 26.3393 29.0294 26.7674 28.9369C27.1955 28.8443 27.5968 28.6549 27.9403 28.3832C28.6134 27.854 28.9989 27.0661 28.9989 26.2215V22.1119C28.9989 21.2673 28.6134 20.4795 27.9403 19.9502ZM3.24438 27.744C2.99679 27.8054 2.73842 27.8095 2.48901 27.7559C2.2396 27.7023 2.00573 27.5924 1.80525 27.4347C1.62 27.2914 1.46984 27.1078 1.3662 26.8978C1.26256 26.6878 1.20815 26.4569 1.20713 26.2227V22.1131C1.20713 21.6419 1.42584 21.1996 1.80525 20.9012C2.0055 20.7434 2.23916 20.6336 2.48838 20.58C2.7376 20.5263 2.99577 20.5304 3.24317 20.5919C6.33168 21.3398 10.5947 22.2134 13.8934 22.3113V26.0245C10.5947 26.1236 6.33168 26.996 3.24317 27.744H3.24438ZM27.7905 26.2227C27.7905 26.6939 27.5718 27.1362 27.1924 27.4347C26.9921 27.5924 26.7585 27.7023 26.5093 27.7559C26.26 27.8095 26.0019 27.8054 25.7545 27.744C22.666 26.996 18.403 26.1224 15.1042 26.0245V22.3113C18.403 22.2122 22.666 21.3398 25.7545 20.5919C26.0021 20.5304 26.2604 20.5263 26.5098 20.5799C26.7593 20.6335 26.9931 20.7434 27.1936 20.9012C27.573 21.2009 27.7917 21.6419 27.7917 22.1131L27.7905 26.2227Z"/>
</svg>
