<svg width="30" height="30" viewBox="0 0 30 30" fill="current" xmlns="http://www.w3.org/2000/svg">
<path d="M24.376 30H5.62523C4.13384 29.9983 2.704 29.4053 1.64942 28.3509C0.594842 27.2965 0.00165435 25.867 0 24.3759L0 11.9541C0 10.0831 0.926289 8.33963 2.47885 7.29354L11.8542 0.96828C12.7822 0.337366 13.8784 0 15.0006 0C16.1228 0 17.2191 0.337366 18.147 0.96828L27.5211 7.29354C28.2847 7.80775 28.9102 8.50175 29.3424 9.31444C29.7747 10.1271 30.0005 11.0336 30 11.9541V24.3759C30 27.4766 27.4774 30 24.376 30ZM15.0006 1.24949C14.1481 1.24949 13.2968 1.5007 12.5543 2.00312L3.17763 8.32713C2.58365 8.72716 2.09717 9.26707 1.76103 9.89933C1.42489 10.5316 1.24941 11.2368 1.25005 11.9528V24.3746C1.25005 26.7868 3.21263 28.7489 5.62523 28.7489H24.376C26.7886 28.7489 28.7512 26.7868 28.7512 24.3746V11.9541C28.7518 11.238 28.5764 10.5328 28.2402 9.90058C27.9041 9.26832 27.4176 8.72841 26.8236 8.32838L17.4482 2.00312C16.7259 1.51331 15.8734 1.25084 15.0006 1.24949Z" />
</svg>
