<svg width="46" height="46" viewBox="0 0 46 46" fill="current" xmlns="http://www.w3.org/2000/svg">
<path d="M30.375 8.5H16.625C15.1337 8.50165 13.7039 9.09482 12.6494 10.1494C11.5948 11.2039 11.0017 12.6337 11 14.125V32.875C11 35.9762 13.5238 38.5 16.625 38.5H30.375C33.4762 38.5 36 35.9762 36 32.875V14.125C36 11.0238 33.4762 8.5 30.375 8.5ZM16.625 9.75H30.375C32.7875 9.75 34.75 11.7125 34.75 14.125V14.75H12.25V14.125C12.25 11.7125 14.2125 9.75 16.625 9.75ZM30.375 37.25H16.625C14.2125 37.25 12.25 35.2875 12.25 32.875V16H34.75V32.875C34.75 35.2875 32.7875 37.25 30.375 37.25ZM31 21.625C31 21.7908 30.9342 21.9497 30.8169 22.0669C30.6997 22.1842 30.5408 22.25 30.375 22.25H16.625C16.4592 22.25 16.3003 22.1842 16.1831 22.0669C16.0658 21.9497 16 21.7908 16 21.625C16 21.4592 16.0658 21.3003 16.1831 21.1831C16.3003 21.0658 16.4592 21 16.625 21H30.375C30.5408 21 30.6997 21.0658 30.8169 21.1831C30.9342 21.3003 31 21.4592 31 21.625ZM26 26.625C26 26.7908 25.9342 26.9497 25.8169 27.0669C25.6997 27.1842 25.5408 27.25 25.375 27.25H16.625C16.4592 27.25 16.3003 27.1842 16.1831 27.0669C16.0658 26.9497 16 26.7908 16 26.625C16 26.4592 16.0658 26.3003 16.1831 26.1831C16.3003 26.0658 16.4592 26 16.625 26H25.375C25.5408 26 25.6997 26.0658 25.8169 26.1831C25.9342 26.3003 26 26.4592 26 26.625Z"/>
</svg>
