<svg width="45" height="45" viewBox="0 0 45 45" fill="none" xmlns="http://www.w3.org/2000/svg">
<path d="M31.3388 15.1655L36.1093 20.2448C36.6857 20.8378 36.9854 21.6733 36.9999 22.461C37.0038 22.8724 36.9287 23.2806 36.7791 23.6615C36.6295 24.0425 36.4084 24.3886 36.1287 24.6796L31.3944 29.8067C31.2834 29.927 31.1309 29.9965 30.9706 29.9999C30.8103 30.0033 30.6552 29.9403 30.5395 29.8249C30.4238 29.7094 30.357 29.5509 30.3537 29.3842C30.3504 29.2175 30.411 29.0563 30.522 28.936L35.2623 23.8027C35.4604 23.5942 35.603 23.3492 35.6888 23.0904L8.60416 23.0904C8.44393 23.0904 8.29026 23.0242 8.17696 22.9064C8.06365 22.7886 8 22.6288 8 22.4622C8 22.2956 8.06365 22.1359 8.17696 22.018C8.29026 21.9002 8.44393 21.8341 8.60416 21.8341L35.6816 21.8341C35.5903 21.5696 35.4434 21.3296 35.2514 21.1318L30.4737 16.0449C30.3713 15.9238 30.3175 15.7665 30.3234 15.6054C30.3294 15.4443 30.3945 15.2917 30.5055 15.179C30.6165 15.0664 30.7648 15.0023 30.9198 15.0001C31.0749 14.9978 31.2249 15.0562 31.3388 15.1655Z" fill="#201541"/>
</svg>
