<svg width="23" height="23" viewBox="0 0 23 23" fill="none" xmlns="http://www.w3.org/2000/svg">
<rect x="0.5" y="0.5" width="22" height="22" rx="4.5" stroke="white"/>
<path d="M11.5008 8C11.0392 8 10.588 8.13688 10.2042 8.39332C9.82042 8.64976 9.52129 9.01426 9.34464 9.44071C9.168 9.86716 9.12179 10.3364 9.21184 10.7891C9.30189 11.2418 9.52416 11.6577 9.85055 11.9841C10.1769 12.3105 10.5928 12.5327 11.0455 12.6228C11.4982 12.7129 11.9675 12.6666 12.3939 12.49C12.8204 12.3134 13.1849 12.0142 13.4413 11.6304C13.6978 11.2466 13.8346 10.7954 13.8346 10.3338C13.8346 9.71485 13.5888 9.12124 13.1511 8.68356C12.7134 8.24588 12.1198 8 11.5008 8ZM11.5008 11.5007C11.27 11.5007 11.0444 11.4323 10.8525 11.3041C10.6606 11.1759 10.5111 10.9936 10.4227 10.7804C10.3344 10.5672 10.3113 10.3325 10.3563 10.1062C10.4014 9.87981 10.5125 9.67189 10.6757 9.50869C10.8389 9.3455 11.0468 9.23436 11.2732 9.18933C11.4995 9.14431 11.7341 9.16742 11.9474 9.25574C12.1606 9.34406 12.3428 9.49362 12.4711 9.68552C12.5993 9.87742 12.6677 10.103 12.6677 10.3338C12.6677 10.6433 12.5448 10.9401 12.3259 11.159C12.1071 11.3778 11.8103 11.5007 11.5008 11.5007Z" fill="white" stroke="white" stroke-width="0.5"/>
<path d="M11.5004 18.5021C11.0091 18.5047 10.5244 18.3894 10.0868 18.1661C9.64914 17.9428 9.2714 17.6179 8.98516 17.2185C6.76161 14.1513 5.63379 11.8455 5.63379 10.3647C5.63379 8.80876 6.25188 7.31656 7.35209 6.21635C8.4523 5.11614 9.9445 4.49805 11.5004 4.49805C13.0564 4.49805 14.5486 5.11614 15.6488 6.21635C16.749 7.31656 17.3671 8.80876 17.3671 10.3647C17.3671 11.8455 16.2393 14.1513 14.0157 17.2185C13.7295 17.6179 13.3517 17.9428 12.9141 18.1661C12.4765 18.3894 11.9917 18.5047 11.5004 18.5021ZM11.5004 5.77173C10.2824 5.77312 9.1147 6.25759 8.25343 7.11885C7.39216 7.98012 6.9077 9.14785 6.90631 10.3659C6.90631 11.5386 8.01079 13.7073 10.0155 16.4723C10.1857 16.7067 10.409 16.8975 10.6671 17.0291C10.9252 17.1606 11.2108 17.2292 11.5004 17.2292C11.7901 17.2292 12.0757 17.1606 12.3338 17.0291C12.5919 16.8975 12.8151 16.7067 12.9853 16.4723C14.9901 13.7073 16.0946 11.5386 16.0946 10.3659C16.0932 9.14785 15.6087 7.98012 14.7474 7.11885C13.8862 6.25759 12.7184 5.77312 11.5004 5.77173Z" fill="white" stroke="white" stroke-width="0.5"/>
</svg>
