<svg width="30" height="30" viewBox="0 0 30 30" fill="current" xmlns="http://www.w3.org/2000/svg">
<path d="M20.9752 27.2523C21.001 27.3393 21.0061 27.4312 20.9902 27.5206C20.9742 27.6099 20.9375 27.6943 20.8831 27.7669C20.8287 27.8396 20.758 27.8985 20.6768 27.939C20.5955 27.9795 20.506 28.0005 20.4152 28.0002C20.2892 28.0004 20.1666 27.9596 20.0658 27.8841C19.965 27.8085 19.8915 27.7023 19.8563 27.5813C19.1202 25.08 16.7122 23.3335 13.9985 23.3335C11.2848 23.3335 8.87679 25.08 8.14062 27.5813C8.09285 27.7246 7.9914 27.8437 7.85761 27.9137C7.72382 27.9837 7.56811 27.999 7.42321 27.9566C7.27832 27.9141 7.15553 27.8171 7.08066 27.686C7.0058 27.5549 6.98469 27.3999 7.02178 27.2535C7.90145 24.2586 10.7703 22.168 13.9973 22.168C17.2243 22.168 20.0943 24.2586 20.9729 27.2535L20.9752 27.2523ZM27.9752 16.7523C27.0956 13.7574 24.2267 11.6667 20.9997 11.6667C20.845 11.6667 20.6966 11.7282 20.5872 11.8376C20.4778 11.947 20.4164 12.0954 20.4164 12.2501C20.4164 12.4048 20.4778 12.5532 20.5872 12.6626C20.6966 12.7719 20.845 12.8334 20.9997 12.8334C23.7122 12.8334 26.1214 14.5799 26.8576 17.0813C26.8788 17.1548 26.9145 17.2235 26.9625 17.2832C27.0104 17.3429 27.0698 17.3926 27.137 17.4292C27.2043 17.4659 27.2781 17.4889 27.3543 17.4968C27.4305 17.5048 27.5075 17.4976 27.5809 17.4756C27.6544 17.4542 27.723 17.4184 27.7827 17.3705C27.8424 17.3225 27.892 17.2632 27.9287 17.196C27.9655 17.1288 27.9886 17.055 27.9968 16.9789C28.0049 16.9027 27.9969 16.8257 27.9752 16.7523ZM7.58295 12.2501C7.58295 12.0954 7.52149 11.947 7.41209 11.8376C7.30269 11.7282 7.15432 11.6667 6.99961 11.6667C3.77142 11.6667 0.902575 13.7574 0.0240705 16.7523C-0.00176158 16.8393 -0.00688639 16.9311 0.00910536 17.0205C0.0250971 17.1098 0.0617623 17.1942 0.116172 17.2669C0.170583 17.3395 0.24123 17.3985 0.322472 17.439C0.403714 17.4795 0.4933 17.5004 0.584074 17.5001C0.710035 17.5003 0.832649 17.4596 0.933444 17.384C1.03424 17.3085 1.10775 17.2022 1.14291 17.0813C1.87908 14.5799 4.28709 12.8334 7.00078 12.8334C7.15549 12.8334 7.30386 12.7719 7.41326 12.6626C7.52265 12.5532 7.58295 12.4048 7.58295 12.2501ZM13.9996 10.5001C16.5733 10.5001 18.6663 12.5931 18.6663 15.1668C18.6663 17.7404 16.5733 19.8334 13.9996 19.8334C11.426 19.8334 9.33296 17.7404 9.33296 15.1668C9.33296 12.5931 11.426 10.5001 13.9996 10.5001ZM10.4996 15.1668C10.4996 17.0964 12.07 18.6668 13.9996 18.6668C15.9293 18.6668 17.4997 17.0964 17.4997 15.1668C17.4997 13.2371 15.9293 11.6667 13.9996 11.6667C12.07 11.6667 10.4996 13.2371 10.4996 15.1668ZM16.333 4.66669C16.333 2.09301 18.426 0 20.9997 0C23.5734 0 25.6664 2.09301 25.6664 4.66669C25.6664 7.24037 23.5734 9.33339 20.9997 9.33339C18.426 9.33339 16.333 7.24037 16.333 4.66669ZM17.4997 4.66669C17.4997 6.59637 19.07 8.16671 20.9997 8.16671C22.9294 8.16671 24.4997 6.59637 24.4997 4.66669C24.4997 2.73702 22.9294 1.16667 20.9997 1.16667C19.07 1.16667 17.4997 2.73702 17.4997 4.66669ZM2.33292 4.66669C2.33292 2.09301 4.42593 0 6.99961 0C9.57329 0 11.6663 2.09301 11.6663 4.66669C11.6663 7.24037 9.57329 9.33339 6.99961 9.33339C4.42593 9.33339 2.33292 7.24037 2.33292 4.66669ZM3.49959 4.66669C3.49959 6.59637 5.06993 8.16671 6.99961 8.16671C8.92929 8.16671 10.4996 6.59637 10.4996 4.66669C10.4996 2.73702 8.92929 1.16667 6.99961 1.16667C5.06993 1.16667 3.49959 2.73702 3.49959 4.66669Z" />
</svg>
