<svg width="24" height="23" viewBox="0 0 24 23" fill="none" xmlns="http://www.w3.org/2000/svg">
<rect x="0.5" y="0.5" width="22.9393" height="22" rx="4.5" stroke="white"/>
<path d="M18.4128 14.2699C18.7499 14.608 18.9392 15.066 18.9392 15.5435C18.9392 16.021 18.7499 16.479 18.4128 16.8171L17.8833 17.4274C13.1184 21.9893 1.52312 10.3969 6.01461 5.61684L6.68368 5.03504C7.02216 4.7073 7.47605 4.52599 7.94718 4.53035C8.4183 4.53471 8.86877 4.72437 9.20113 5.05831C9.21916 5.07635 10.2972 6.47674 10.2972 6.47674C10.6171 6.8128 10.7952 7.25922 10.7944 7.72319C10.7937 8.18716 10.6142 8.63299 10.2932 8.968L9.61944 9.8151C9.99229 10.721 10.5405 11.5444 11.2325 12.2378C11.9245 12.9312 12.7467 13.481 13.6519 13.8557L14.5042 13.1779C14.8393 12.8572 15.285 12.6778 15.7489 12.6772C16.2127 12.6765 16.659 12.8546 16.9949 13.1744C16.9949 13.1744 18.3947 14.2519 18.4128 14.2699ZM17.6122 15.1159C17.6122 15.1159 16.22 14.0448 16.2019 14.0267C16.0821 13.9079 15.9201 13.8412 15.7513 13.8412C15.5825 13.8412 15.4206 13.9079 15.3007 14.0267C15.285 14.043 14.1115 14.978 14.1115 14.978C14.0324 15.0409 13.9383 15.0822 13.8384 15.0977C13.7386 15.1132 13.6364 15.1024 13.5419 15.0664C12.3693 14.6298 11.3042 13.9463 10.4187 13.0622C9.5333 12.178 8.84821 11.1139 8.40988 9.94194C8.37102 9.8462 8.35834 9.74185 8.37317 9.6396C8.388 9.53735 8.42979 9.44089 8.49424 9.36014C8.49424 9.36014 9.42919 8.18607 9.4449 8.17094C9.56375 8.05108 9.63043 7.88912 9.63043 7.72034C9.63043 7.55155 9.56375 7.38959 9.4449 7.26973C9.42687 7.25228 8.35577 5.85887 8.35577 5.85887C8.23412 5.74979 8.07535 5.69137 7.912 5.69558C7.74866 5.6998 7.59312 5.76634 7.47726 5.88156L6.80819 6.46336C3.52568 10.4103 13.5739 19.9012 17.0327 16.6326L17.5627 16.0217C17.6869 15.9067 17.7616 15.7479 17.7708 15.5788C17.78 15.4098 17.7231 15.2438 17.6122 15.1159Z" fill="white" stroke="white" stroke-width="0.5"/>
</svg>
