<svg width="30" stroke='current' height="30" viewBox="0 0 30 30" fill="current" xmlns="http://www.w3.org/2000/svg">
<g clip-path="url(#clip0_3361_2019)" fill="current">
<path d="M24.375 5H7.5V3.125C7.5 1.4025 6.09875 0 4.375 0H3.75C1.6825 0 0 1.6825 0 3.75V26.3462C0 28.4612 1.65875 30 3.92875 30H24.375C27.4762 30 30 27.4762 30 24.375V10.625C30 7.52375 27.4762 5 24.375 5ZM1.25 3.75C1.25 2.37125 2.37125 1.25 3.75 1.25H4.375C5.40875 1.25 6.25 2.09125 6.25 3.125V20.625C6.25 21.6588 5.40875 22.5 4.375 22.5H3.75C2.825 22.5 1.93375 22.8437 1.25 23.455V3.75ZM28.75 24.375C28.75 25.5353 28.2891 26.6481 27.4686 27.4686C26.6481 28.2891 25.5353 28.75 24.375 28.75H3.75C3.08696 28.75 2.45107 28.4866 1.98223 28.0178C1.51339 27.5489 1.25 26.913 1.25 26.25C1.25 25.587 1.51339 24.9511 1.98223 24.4822C2.45107 24.0134 3.08696 23.75 3.75 23.75H4.375C4.78538 23.75 5.19174 23.6692 5.57089 23.5121C5.95003 23.3551 6.29453 23.1249 6.58471 22.8347C6.87489 22.5445 7.10508 22.2 7.26212 21.8209C7.41917 21.4417 7.5 21.0354 7.5 20.625V6.25H24.375C25.5353 6.25 26.6481 6.71094 27.4686 7.53141C28.2891 8.35188 28.75 9.46468 28.75 10.625V24.375Z" fill="black"/>
<path d="M26.25 10.625V24.375C26.25 25.4088 25.4088 26.25 24.375 26.25H11.875C10.8413 26.25 10 25.4088 10 24.375V10.625C10 9.59125 10.8413 8.75 11.875 8.75H13.125C13.2908 8.75 13.4497 8.81585 13.5669 8.93306C13.6842 9.05027 13.75 9.20924 13.75 9.375C13.75 9.54076 13.6842 9.69973 13.5669 9.81694C13.4497 9.93415 13.2908 10 13.125 10H11.875C11.7092 10 11.5503 10.0658 11.4331 10.1831C11.3158 10.3003 11.25 10.4592 11.25 10.625V13.75H13.125C13.2908 13.75 13.4497 13.8158 13.5669 13.9331C13.6842 14.0503 13.75 14.2092 13.75 14.375C13.75 14.5408 13.6842 14.6997 13.5669 14.8169C13.4497 14.9342 13.2908 15 13.125 15H11.25V24.375C11.25 24.5408 11.3158 24.6997 11.4331 24.8169C11.5503 24.9342 11.7092 25 11.875 25H17.5V18.75H15.625C15.4592 18.75 15.3003 18.6842 15.1831 18.5669C15.0658 18.4497 15 18.2908 15 18.125C15 17.9592 15.0658 17.8003 15.1831 17.6831C15.3003 17.5658 15.4592 17.5 15.625 17.5H20.625C20.7908 17.5 20.9497 17.5658 21.0669 17.6831C21.1842 17.8003 21.25 17.9592 21.25 18.125C21.25 18.2908 21.1842 18.4497 21.0669 18.5669C20.9497 18.6842 20.7908 18.75 20.625 18.75H18.75V25H24.375C24.5408 25 24.6997 24.9342 24.8169 24.8169C24.9342 24.6997 25 24.5408 25 24.375V10.625C25 10.4592 24.9342 10.3003 24.8169 10.1831C24.6997 10.0658 24.5408 10 24.375 10H19.375C19.2092 10 19.0503 10.0658 18.9331 10.1831C18.8158 10.3003 18.75 10.4592 18.75 10.625V13.125C18.75 13.2908 18.6842 13.4497 18.5669 13.5669C18.4497 13.6842 18.2908 13.75 18.125 13.75C17.9592 13.75 17.8003 13.6842 17.6831 13.5669C17.5658 13.4497 17.5 13.2908 17.5 13.125V10.625C17.5 9.59125 18.3413 8.75 19.375 8.75H24.375C25.4088 8.75 26.25 9.59125 26.25 10.625Z"/>
</g>
<defs>
<clipPath id="clip0_3361_2019">
<rect width="30" height="30"/>
</clipPath>
</defs>
</svg>
