<svg width="30" height="30" viewBox="0 0 30 30" fill="current" xmlns="http://www.w3.org/2000/svg">
<g clip-path="url(#clip0_3362_2055)">
<path d="M26.875 10.625H25.625V9.375C25.625 6.6175 23.3825 4.375 20.625 4.375H20V3.125C20 1.4025 18.5987 0 16.875 0H14.375C13.5465 0.000992411 12.7522 0.330551 12.1664 0.916387C11.5806 1.50222 11.251 2.2965 11.25 3.125V4.375H8.75V3.125C8.75 1.4025 7.34875 0 5.625 0H3.125C2.2965 0.000992411 1.50222 0.330551 0.916387 0.916387C0.330551 1.50222 0.000992411 2.2965 0 3.125L0 6.875C0 8.5975 1.40125 10 3.125 10H5.625C7.34875 10 8.75 8.5975 8.75 6.875V5.625H11.25V6.875C11.25 8.5975 12.6513 10 14.375 10H16.875C18.5987 10 20 8.5975 20 6.875V5.625H20.625C22.6925 5.625 24.375 7.3075 24.375 9.375V10.625H23.125C22.2965 10.626 21.5022 10.9556 20.9164 11.5414C20.3306 12.1272 20.001 12.9215 20 13.75V16.25C20 17.9737 21.4013 19.375 23.125 19.375H24.375V20.625C24.375 22.6925 22.6925 24.375 20.625 24.375H20V23.125C20 21.4013 18.5987 20 16.875 20H14.375C13.5464 20.0007 12.7519 20.3301 12.166 20.916C11.5801 21.5019 11.2507 22.2964 11.25 23.125V24.375H8.75V23.125C8.75 21.4013 7.34875 20 5.625 20H3.125C2.2964 20.0007 1.50193 20.3301 0.916023 20.916C0.330115 21.5019 0.000662084 22.2964 0 23.125L0 26.875C0 28.5987 1.40125 30 3.125 30H5.625C7.34875 30 8.75 28.5987 8.75 26.875V25.625H11.25V26.875C11.25 28.5987 12.6513 30 14.375 30H16.875C18.5987 30 20 28.5987 20 26.875V25.625H20.625C23.3825 25.625 25.625 23.3825 25.625 20.625V19.375H26.875C28.5987 19.375 30 17.9737 30 16.25V13.75C30 12.0275 28.5987 10.625 26.875 10.625ZM7.5 6.875C7.5 7.90875 6.65875 8.75 5.625 8.75H3.125C2.09125 8.75 1.25 7.90875 1.25 6.875V3.125C1.25 2.09125 2.09125 1.25 3.125 1.25H5.625C6.65875 1.25 7.5 2.09125 7.5 3.125V6.875ZM18.75 6.875C18.75 7.90875 17.9088 8.75 16.875 8.75H14.375C13.3412 8.75 12.5 7.90875 12.5 6.875V3.125C12.5 2.09125 13.3412 1.25 14.375 1.25H16.875C17.9088 1.25 18.75 2.09125 18.75 3.125V6.875ZM7.5 26.875C7.5 27.9088 6.65875 28.75 5.625 28.75H3.125C2.09125 28.75 1.25 27.9088 1.25 26.875V23.125C1.25 22.0912 2.09125 21.25 3.125 21.25H5.625C6.65875 21.25 7.5 22.0912 7.5 23.125V26.875ZM18.75 26.875C18.75 27.9088 17.9088 28.75 16.875 28.75H14.375C13.3412 28.75 12.5 27.9088 12.5 26.875V23.125C12.5 22.0912 13.3412 21.25 14.375 21.25H16.875C17.9088 21.25 18.75 22.0912 18.75 23.125V26.875ZM28.75 16.25C28.75 17.2838 27.9088 18.125 26.875 18.125H23.125C22.0912 18.125 21.25 17.2838 21.25 16.25V13.75C21.25 12.7162 22.0912 11.875 23.125 11.875H26.875C27.9088 11.875 28.75 12.7162 28.75 13.75V16.25Z"/>
</g>
<defs>
<clipPath id="clip0_3362_2055">
<rect width="30" height="30" fill="current"/>
</clipPath>
</defs>
</svg>
