<svg width="30" height="30" viewBox="0 0 30 30" fill="current" xmlns="http://www.w3.org/2000/svg">
    <g clip-path="url(#clip0_3311_2281)">
        <path
            d="M25 21.25C24.3088 21.25 23.75 21.8088 23.75 22.5C23.75 23.1912 23.19 23.75 22.5 23.75H20V23.125C20 21.4013 18.5987 20 16.875 20H14.375C13.5464 20.0007 12.7519 20.3301 12.166 20.916C11.5801 21.5019 11.2507 22.2964 11.25 23.125V23.75H8.75V23.125C8.75 21.4013 7.34875 20 5.625 20H3.125C2.2964 20.0007 1.50193 20.3301 0.916023 20.916C0.330115 21.5019 0.000662084 22.2964 0 23.125L0 26.875C0 28.5987 1.40125 30 3.125 30H5.625C7.34875 30 8.75 28.5987 8.75 26.875V26.25H11.25V26.875C11.25 28.5987 12.6513 30 14.375 30H16.875C18.5987 30 20 28.5987 20 26.875V26.25H22.5C24.5675 26.25 26.25 24.5675 26.25 22.5C26.25 22.1685 26.1183 21.8505 25.8839 21.6161C25.6495 21.3817 25.3315 21.25 25 21.25ZM6.25 26.875C6.25 27.2188 5.96875 27.5 5.625 27.5H3.125C2.95934 27.4997 2.80056 27.4337 2.68342 27.3166C2.56628 27.1994 2.50033 27.0407 2.5 26.875V23.125C2.5 22.7812 2.78125 22.5 3.125 22.5H5.625C5.96875 22.5 6.25 22.7812 6.25 23.125V26.875ZM17.5 26.875C17.5 27.2188 17.2188 27.5 16.875 27.5H14.375C14.2093 27.4997 14.0506 27.4337 13.9334 27.3166C13.8163 27.1994 13.7503 27.0407 13.75 26.875V23.125C13.75 22.7812 14.0312 22.5 14.375 22.5H16.875C17.2188 22.5 17.5 22.7812 17.5 23.125V26.875ZM26.875 10.625H23.125C22.2965 10.626 21.5022 10.9556 20.9164 11.5414C20.3306 12.1272 20.001 12.9215 20 13.75V16.25C20 17.9737 21.4013 19.375 23.125 19.375H26.875C28.5987 19.375 30 17.9737 30 16.25V13.75C30 12.0275 28.5987 10.625 26.875 10.625ZM27.5 16.25C27.5 16.5938 27.2188 16.875 26.875 16.875H23.125C22.9593 16.8747 22.8006 16.8087 22.6834 16.6916C22.5663 16.5744 22.5003 16.4157 22.5 16.25V13.75C22.5 13.5842 22.5658 13.4253 22.6831 13.3081C22.8003 13.1908 22.9592 13.125 23.125 13.125H26.875C27.0408 13.125 27.1997 13.1908 27.3169 13.3081C27.4342 13.4253 27.5 13.5842 27.5 13.75V16.25ZM3.125 10H5.625C7.34875 10 8.75 8.5975 8.75 6.875V6.25H11.25V6.875C11.25 8.5975 12.6513 10 14.375 10H16.875C18.5987 10 20 8.5975 20 6.875V6.25H22.5C23.19 6.25 23.75 6.81125 23.75 7.5C23.75 7.83152 23.8817 8.14946 24.1161 8.38388C24.3505 8.6183 24.6685 8.75 25 8.75C25.3315 8.75 25.6495 8.6183 25.8839 8.38388C26.1183 8.14946 26.25 7.83152 26.25 7.5C26.25 5.4325 24.5675 3.75 22.5 3.75H20V3.125C20 1.4025 18.5987 0 16.875 0H14.375C13.5465 0.000992411 12.7522 0.330551 12.1664 0.916387C11.5806 1.50222 11.251 2.2965 11.25 3.125V3.75H8.75V3.125C8.75 1.4025 7.34875 0 5.625 0H3.125C2.2965 0.000992411 1.50222 0.330551 0.916387 0.916387C0.330551 1.50222 0.000992411 2.2965 0 3.125L0 6.875C0 8.5975 1.40125 10 3.125 10ZM13.75 3.125C13.75 2.95924 13.8158 2.80027 13.9331 2.68306C14.0503 2.56585 14.2092 2.5 14.375 2.5H16.875C17.0408 2.5 17.1997 2.56585 17.3169 2.68306C17.4342 2.80027 17.5 2.95924 17.5 3.125V6.875C17.5 7.04076 17.4342 7.19973 17.3169 7.31694C17.1997 7.43415 17.0408 7.5 16.875 7.5H14.375C14.2092 7.5 14.0503 7.43415 13.9331 7.31694C13.8158 7.19973 13.75 7.04076 13.75 6.875V3.125ZM2.5 3.125C2.5 2.95924 2.56585 2.80027 2.68306 2.68306C2.80027 2.56585 2.95924 2.5 3.125 2.5H5.625C5.79076 2.5 5.94973 2.56585 6.06694 2.68306C6.18415 2.80027 6.25 2.95924 6.25 3.125V6.875C6.25 7.04076 6.18415 7.19973 6.06694 7.31694C5.94973 7.43415 5.79076 7.5 5.625 7.5H3.125C2.95924 7.5 2.80027 7.43415 2.68306 7.31694C2.56585 7.19973 2.5 7.04076 2.5 6.875V3.125Z"
        />
    </g>
    <defs>
        <clipPath id="clip0_3311_2281">
            <rect width="30" height="30" />
        </clipPath>
    </defs>
</svg>