<svg width="30" height="30" viewBox="0 0 30 30" fill="current" xmlns="http://www.w3.org/2000/svg">
<g clip-path="url(#clip0_3361_2045)">
<path d="M25.625 18.75H4.375C1.9625 18.75 0 16.7875 0 14.375V4.375C0 1.9625 1.9625 0 4.375 0H25.625C28.0375 0 30 1.9625 30 4.375V14.375C30 16.7875 28.0375 18.75 25.625 18.75ZM4.375 1.25C3.5462 1.25 2.75134 1.57924 2.16529 2.16529C1.57924 2.75134 1.25 3.5462 1.25 4.375V14.375C1.25 15.2038 1.57924 15.9987 2.16529 16.5847C2.75134 17.1708 3.5462 17.5 4.375 17.5H25.625C26.4538 17.5 27.2487 17.1708 27.8347 16.5847C28.4208 15.9987 28.75 15.2038 28.75 14.375V4.375C28.75 3.5462 28.4208 2.75134 27.8347 2.16529C27.2487 1.57924 26.4538 1.25 25.625 1.25H4.375ZM5 30H2.5C1.125 30 0 28.875 0 27.5V25C0 23.625 1.125 22.5 2.5 22.5H5C6.375 22.5 7.5 23.625 7.5 25V27.5C7.5 28.875 6.375 30 5 30ZM2.5 23.75C1.8125 23.75 1.25 24.3125 1.25 25V27.5C1.25 28.1875 1.8125 28.75 2.5 28.75H5C5.6875 28.75 6.25 28.1875 6.25 27.5V25C6.25 24.3125 5.6875 23.75 5 23.75H2.5ZM27.5 30H25C23.625 30 22.5 28.875 22.5 27.5V25C22.5 23.625 23.625 22.5 25 22.5H27.5C28.875 22.5 30 23.625 30 25V27.5C30 28.875 28.875 30 27.5 30ZM25 23.75C24.3125 23.75 23.75 24.3125 23.75 25V27.5C23.75 28.1875 24.3125 28.75 25 28.75H27.5C28.1875 28.75 28.75 28.1875 28.75 27.5V25C28.75 24.3125 28.1875 23.75 27.5 23.75H25ZM16.25 30H13.75C12.375 30 11.25 28.875 11.25 27.5V25C11.25 23.625 12.375 22.5 13.75 22.5H16.25C17.625 22.5 18.75 23.625 18.75 25V27.5C18.75 28.875 17.625 30 16.25 30ZM13.75 23.75C13.0625 23.75 12.5 24.3125 12.5 25V27.5C12.5 28.1875 13.0625 28.75 13.75 28.75H16.25C16.9375 28.75 17.5 28.1875 17.5 27.5V25C17.5 24.3125 16.9375 23.75 16.25 23.75H13.75Z"/>
</g>
<defs>
<clipPath id="clip0_3361_2045">
<rect width="30" height="30" fill="white"/>
</clipPath>
</defs>
</svg>
