<svg width="45" height="46" viewBox="0 0 45 46" fill="#680aff" xmlns="http://www.w3.org/2000/svg">
    <path fillRule="evenodd" clipRule="evenodd"
        d="M8 33.9324V30.1442L11.0845 27.0653C11.6085 26.5422 12.4581 26.5422 12.9821 27.0653C13.5061 27.5883 13.5061 28.4364 12.9821 28.9594L8 33.9324ZM12.8715 38.5H12.1698C10.5014 38.5 9.06192 37.5202 8.39529 36.1046L14.6289 29.8823C15.4444 29.0684 16.7666 29.0684 17.5821 29.8823L18.0669 30.3663C18.8824 31.1803 18.8824 32.5 18.0669 33.3141L12.8715 38.5ZM19.2338 38.5H15.4387L19.8778 34.069C20.4018 33.5459 21.2514 33.5459 21.7754 34.069C22.2994 34.5921 22.2994 35.44 21.7754 35.9631L19.2338 38.5ZM28.667 38.5H21.7909L31.4112 28.8974C32.2267 28.0833 33.5489 28.0833 34.3644 28.8974L34.8492 29.3813C35.6647 30.1953 35.6647 31.5151 34.8492 32.3291L28.667 38.5ZM38 32.0014V34.3302C38 36.6331 36.1331 38.5 33.8302 38.5H31.2361L37.274 32.4731C37.4874 32.2602 37.7354 32.1029 38 32.0014ZM38 13.195V16.9833L34.9146 20.063C34.3907 20.586 33.541 20.586 33.0171 20.063C32.4931 19.5399 32.4931 18.6919 33.0171 18.1688L38 13.195ZM33.2562 8.5H33.8302C35.5327 8.5 36.997 9.52035 37.6447 10.9829L31.3702 17.2459C30.5547 18.0599 29.2325 18.0599 28.417 17.2459L27.9323 16.762C27.1167 15.948 27.1167 14.6282 27.9323 13.8142L33.2562 8.5ZM26.8935 8.5H30.6887L26.1214 13.059C25.5974 13.582 24.7478 13.582 24.2238 13.059C23.6997 12.5359 23.6997 11.6879 24.2238 11.1649L26.8935 8.5ZM17.4607 8.5H24.3366L14.588 18.2308C13.7725 19.0449 12.4503 19.0449 11.6348 18.2308L11.15 17.7469C10.3345 16.9329 10.3345 15.6132 11.15 14.7992L17.4607 8.5ZM14.8919 8.5L8.72571 14.6549C8.51243 14.8678 8.26448 15.025 8 15.1266V12.6698C8 10.3669 9.86687 8.5 12.1698 8.5H14.8919Z" />
</svg>